<svg xmlns="http://www.w3.org/2000/svg" viewBox="0 0 280 48" fill="none" role="img" aria-label="BestBritCasinoList">
  <!-- Mark: slot machine -->
  <rect x="0" y="0" width="48" height="48" rx="12" fill="#C1121F"/>
  <rect x="9" y="8" width="30" height="32" rx="5" fill="#121212"/>
  <rect x="20" y="5" width="8" height="4" rx="1.5" fill="#FFFFFF"/>
  <rect x="13" y="14" width="22" height="16" rx="2.5" fill="#0b0b0b"/>
  <rect x="15" y="16" width="5.5" height="12" rx="1" fill="#242424"/>
  <rect x="21.25" y="16" width="5.5" height="12" rx="1" fill="#242424"/>
  <rect x="27.5" y="16" width="5.5" height="12" rx="1" fill="#242424"/>
  <text x="17.75" y="25.5" text-anchor="middle" font-family="Georgia, 'Times New Roman', serif" font-size="8" font-weight="700" fill="#C1121F">7</text>
  <text x="24" y="25.5" text-anchor="middle" font-family="Georgia, 'Times New Roman', serif" font-size="8" font-weight="700" fill="#FFFFFF">7</text>
  <text x="30.25" y="25.5" text-anchor="middle" font-family="Georgia, 'Times New Roman', serif" font-size="8" font-weight="700" fill="#C1121F">7</text>
  <line x1="13" y1="22" x2="35" y2="22" stroke="#C1121F" stroke-width="0.75" stroke-opacity="0.7"/>
  <rect x="17" y="33" width="14" height="3" rx="1.5" fill="#C1121F"/>
  <circle cx="42" cy="18" r="2.2" fill="#FFFFFF"/>
  <rect x="40.9" y="18" width="2.2" height="10" rx="1" fill="#E23140"/>
  <circle cx="42" cy="29" r="1.6" fill="#FFFFFF"/>

  <!-- Wordmark -->
  <text x="60" y="30" font-family="ui-sans-serif, system-ui, -apple-system, 'Segoe UI', sans-serif" font-size="20" font-weight="700" letter-spacing="-0.02em">
    <tspan fill="#FFFFFF">BestBrit</tspan><tspan fill="#E23140">CasinoList</tspan>
  </text>
</svg>
